<mxfile host="app.diagrams.net" agent="Mozilla/5.0 (X11; Linux x86_64; rv:122.0) Gecko/20100101 Firefox/122.0" version="24.8.0">
  <diagram name="Page-1" id="y4vLvt-76Si4RtkFSOu0">
    <mxGraphModel dx="2286" dy="1814" grid="1" gridSize="10" guides="1" tooltips="1" connect="1" arrows="1" fold="1" page="1" pageScale="1" pageWidth="850" pageHeight="1100" math="1" shadow="0">
      <root>
        <mxCell id="0" />
        <mxCell id="1" parent="0" />
        <mxCell id="vqOgAc8kH5C6fIGknMar-2" value="" style="rounded=0;whiteSpace=wrap;html=1;fillColor=none;dashed=1;rotation=90;" vertex="1" parent="1">
          <mxGeometry x="165.26000000000002" y="362.5" width="174.49" height="227.75" as="geometry" />
        </mxCell>
        <mxCell id="vqOgAc8kH5C6fIGknMar-3" value="" style="rounded=0;whiteSpace=wrap;html=1;rotation=90;" vertex="1" parent="1">
          <mxGeometry x="240" y="330" width="40" height="170" as="geometry" />
        </mxCell>
        <mxCell id="vqOgAc8kH5C6fIGknMar-4" value="$$H^m_0$$" style="rounded=1;whiteSpace=wrap;html=1;" vertex="1" parent="1">
          <mxGeometry x="187.49" y="400" width="30" height="30" as="geometry" />
        </mxCell>
        <mxCell id="vqOgAc8kH5C6fIGknMar-5" value="$$H^m_1$$" style="rounded=1;whiteSpace=wrap;html=1;" vertex="1" parent="1">
          <mxGeometry x="226.25000000000003" y="400" width="30" height="30" as="geometry" />
        </mxCell>
        <mxCell id="vqOgAc8kH5C6fIGknMar-6" value="$$H^m_H$$" style="rounded=1;whiteSpace=wrap;html=1;" vertex="1" parent="1">
          <mxGeometry x="301.74" y="400" width="30" height="30" as="geometry" />
        </mxCell>
        <mxCell id="vqOgAc8kH5C6fIGknMar-7" value="&lt;font style=&quot;font-size: 14px;&quot; face=&quot;Garamond&quot;&gt;Layer Norm&lt;/font&gt;" style="rounded=0;whiteSpace=wrap;html=1;rotation=0;" vertex="1" parent="1">
          <mxGeometry x="175" y="460.5" width="170" height="17.5" as="geometry" />
        </mxCell>
        <mxCell id="vqOgAc8kH5C6fIGknMar-8" value="&lt;font style=&quot;font-size: 14px;&quot; face=&quot;Garamond&quot;&gt;Astromer I Encoder&lt;/font&gt;" style="text;html=1;strokeColor=none;fillColor=none;align=center;verticalAlign=middle;whiteSpace=wrap;rounded=0;rotation=-90;" vertex="1" parent="1">
          <mxGeometry x="7.49" y="456.5" width="229.5" height="30" as="geometry" />
        </mxCell>
        <mxCell id="vqOgAc8kH5C6fIGknMar-9" value="&lt;font face=&quot;Garamond&quot;&gt;&lt;span style=&quot;font-size: 14px;&quot;&gt;Feed-Forward&lt;/span&gt;&lt;/font&gt;" style="rounded=0;whiteSpace=wrap;html=1;rotation=0;" vertex="1" parent="1">
          <mxGeometry x="175" y="482.5" width="170" height="17.5" as="geometry" />
        </mxCell>
        <mxCell id="vqOgAc8kH5C6fIGknMar-10" value="&lt;font style=&quot;font-size: 14px;&quot; face=&quot;Garamond&quot;&gt;Layer Norm&lt;/font&gt;" style="rounded=0;whiteSpace=wrap;html=1;rotation=0;" vertex="1" parent="1">
          <mxGeometry x="175" y="505" width="170" height="17.5" as="geometry" />
        </mxCell>
        <mxCell id="vqOgAc8kH5C6fIGknMar-11" value="&lt;font style=&quot;font-size: 14px;&quot; face=&quot;Garamond&quot;&gt;Concatenation&lt;/font&gt;" style="rounded=0;whiteSpace=wrap;html=1;rotation=0;" vertex="1" parent="1">
          <mxGeometry x="175" y="439" width="170" height="17.5" as="geometry" />
        </mxCell>
        <mxCell id="vqOgAc8kH5C6fIGknMar-12" value="" style="endArrow=classic;html=1;rounded=0;" edge="1" parent="1">
          <mxGeometry width="50" height="50" relative="1" as="geometry">
            <mxPoint x="440" y="229.38" as="sourcePoint" />
            <mxPoint x="440" y="384.38" as="targetPoint" />
          </mxGeometry>
        </mxCell>
        <mxCell id="vqOgAc8kH5C6fIGknMar-13" value="&lt;font style=&quot;font-size: 14px;&quot; face=&quot;Garamond&quot;&gt;Data flow&lt;/font&gt;" style="text;html=1;strokeColor=none;fillColor=none;align=center;verticalAlign=middle;whiteSpace=wrap;rounded=0;fontSize=14;" vertex="1" parent="1">
          <mxGeometry x="410" y="391.88" width="60" height="30" as="geometry" />
        </mxCell>
        <mxCell id="vqOgAc8kH5C6fIGknMar-14" value="" style="endArrow=classic;html=1;rounded=0;" edge="1" parent="1">
          <mxGeometry width="50" height="50" relative="1" as="geometry">
            <mxPoint x="440" y="440.63" as="sourcePoint" />
            <mxPoint x="440" y="600.63" as="targetPoint" />
          </mxGeometry>
        </mxCell>
        <mxCell id="vqOgAc8kH5C6fIGknMar-15" value="&lt;font style=&quot;font-size: 14px;&quot; face=&quot;Garamond&quot;&gt;Times&lt;/font&gt;" style="rounded=0;whiteSpace=wrap;html=1;rotation=0;fillColor=#f5f5f5;fontColor=#000000;strokeColor=#000000;" vertex="1" parent="1">
          <mxGeometry x="163.51" y="220" width="85" height="25" as="geometry" />
        </mxCell>
        <mxCell id="vqOgAc8kH5C6fIGknMar-20" style="edgeStyle=orthogonalEdgeStyle;rounded=0;orthogonalLoop=1;jettySize=auto;html=1;exitX=0.5;exitY=1;exitDx=0;exitDy=0;entryX=0.5;entryY=0;entryDx=0;entryDy=0;" edge="1" parent="1" source="vqOgAc8kH5C6fIGknMar-22" target="vqOgAc8kH5C6fIGknMar-23">
          <mxGeometry relative="1" as="geometry" />
        </mxCell>
        <mxCell id="vqOgAc8kH5C6fIGknMar-21" style="edgeStyle=orthogonalEdgeStyle;rounded=0;orthogonalLoop=1;jettySize=auto;html=1;exitX=0;exitY=0.5;exitDx=0;exitDy=0;entryX=0.5;entryY=1;entryDx=0;entryDy=0;" edge="1" parent="1" source="vqOgAc8kH5C6fIGknMar-22" target="vqOgAc8kH5C6fIGknMar-3">
          <mxGeometry relative="1" as="geometry" />
        </mxCell>
        <mxCell id="vqOgAc8kH5C6fIGknMar-22" value="&lt;div&gt;&lt;font style=&quot;font-size: 14px;&quot; face=&quot;Garamond&quot;&gt;$$Z^{m}_{L\times d_k}$$&lt;/font&gt;&lt;/div&gt;" style="rounded=0;whiteSpace=wrap;html=1;rotation=0;fillColor=#f5f5f5;strokeColor=#000000;fontColor=#000000;" vertex="1" parent="1">
          <mxGeometry x="175" y="530" width="170" height="25" as="geometry" />
        </mxCell>
        <mxCell id="vqOgAc8kH5C6fIGknMar-23" value="&lt;font style=&quot;font-size: 14px;&quot; face=&quot;Garamond&quot;&gt;$$Z^{M}_{L\times M d_k}$$&lt;/font&gt;" style="rounded=0;whiteSpace=wrap;html=1;rotation=0;fillColor=#f5f5f5;strokeColor=#000000;fontColor=#000000;" vertex="1" parent="1">
          <mxGeometry x="175" y="580" width="170" height="25" as="geometry" />
        </mxCell>
        <mxCell id="vqOgAc8kH5C6fIGknMar-24" value="&lt;font style=&quot;font-size: 14px;&quot; face=&quot;Garamond&quot;&gt;Magnitudes&lt;/font&gt;" style="rounded=0;whiteSpace=wrap;html=1;rotation=0;fillColor=#f5f5f5;fontColor=#000000;strokeColor=#000000;" vertex="1" parent="1">
          <mxGeometry x="260" y="220" width="94" height="25" as="geometry" />
        </mxCell>
        <mxCell id="vqOgAc8kH5C6fIGknMar-26" value="" style="shape=loopLimit;whiteSpace=wrap;html=1;rotation=0;" vertex="1" parent="1">
          <mxGeometry x="187.26" y="250" width="37.5" height="30" as="geometry" />
        </mxCell>
        <mxCell id="vqOgAc8kH5C6fIGknMar-27" style="edgeStyle=orthogonalEdgeStyle;rounded=0;orthogonalLoop=1;jettySize=auto;html=1;exitX=0.5;exitY=1;exitDx=0;exitDy=0;entryX=0;entryY=0.5;entryDx=0;entryDy=0;" edge="1" parent="1" source="vqOgAc8kH5C6fIGknMar-28" target="vqOgAc8kH5C6fIGknMar-33">
          <mxGeometry relative="1" as="geometry" />
        </mxCell>
        <mxCell id="vqOgAc8kH5C6fIGknMar-28" value="&lt;font style=&quot;font-size: 12px;&quot; face=&quot;Garamond&quot;&gt;PE&lt;/font&gt;" style="text;html=1;align=center;verticalAlign=middle;whiteSpace=wrap;rounded=0;" vertex="1" parent="1">
          <mxGeometry x="191.01" y="260" width="30" height="20" as="geometry" />
        </mxCell>
        <mxCell id="vqOgAc8kH5C6fIGknMar-29" style="edgeStyle=orthogonalEdgeStyle;rounded=0;orthogonalLoop=1;jettySize=auto;html=1;exitX=0.5;exitY=1;exitDx=0;exitDy=0;entryX=1;entryY=0.5;entryDx=0;entryDy=0;" edge="1" parent="1" source="vqOgAc8kH5C6fIGknMar-31" target="vqOgAc8kH5C6fIGknMar-33">
          <mxGeometry relative="1" as="geometry">
            <Array as="points">
              <mxPoint x="306" y="300" />
            </Array>
          </mxGeometry>
        </mxCell>
        <mxCell id="vqOgAc8kH5C6fIGknMar-30" value="" style="shape=loopLimit;whiteSpace=wrap;html=1;rotation=0;" vertex="1" parent="1">
          <mxGeometry x="292.75000000000006" y="250" width="37.5" height="30" as="geometry" />
        </mxCell>
        <mxCell id="vqOgAc8kH5C6fIGknMar-31" value="&lt;font face=&quot;Garamond&quot;&gt;FC&lt;/font&gt;" style="text;html=1;align=center;verticalAlign=middle;whiteSpace=wrap;rounded=0;" vertex="1" parent="1">
          <mxGeometry x="296.47" y="260" width="30" height="20" as="geometry" />
        </mxCell>
        <mxCell id="vqOgAc8kH5C6fIGknMar-32" style="edgeStyle=orthogonalEdgeStyle;rounded=0;orthogonalLoop=1;jettySize=auto;html=1;exitX=0.5;exitY=1;exitDx=0;exitDy=0;entryX=0.5;entryY=0;entryDx=0;entryDy=0;" edge="1" parent="1" source="vqOgAc8kH5C6fIGknMar-33" target="vqOgAc8kH5C6fIGknMar-34">
          <mxGeometry relative="1" as="geometry" />
        </mxCell>
        <mxCell id="vqOgAc8kH5C6fIGknMar-33" value="" style="shape=orEllipse;perimeter=ellipsePerimeter;whiteSpace=wrap;html=1;backgroundOutline=1;" vertex="1" parent="1">
          <mxGeometry x="248.51" y="290" width="20" height="20" as="geometry" />
        </mxCell>
        <mxCell id="vqOgAc8kH5C6fIGknMar-34" value="&lt;font style=&quot;font-size: 14px;&quot; face=&quot;Garamond&quot;&gt;Input&lt;/font&gt;" style="rounded=0;whiteSpace=wrap;html=1;rotation=0;fillColor=#f5f5f5;fontColor=#000000;strokeColor=#000000;" vertex="1" parent="1">
          <mxGeometry x="172.51" y="330" width="172.49" height="25" as="geometry" />
        </mxCell>
        <mxCell id="vqOgAc8kH5C6fIGknMar-35" value="&lt;div align=&quot;left&quot;&gt;&lt;font face=&quot;Garamond&quot;&gt;$$\times M$$ &lt;br&gt;&lt;/font&gt;&lt;/div&gt;" style="text;html=1;align=center;verticalAlign=middle;whiteSpace=wrap;rounded=0;" vertex="1" parent="1">
          <mxGeometry x="344.22999999999996" y="432.5" width="75.06" height="73.5" as="geometry" />
        </mxCell>
        <mxCell id="vqOgAc8kH5C6fIGknMar-36" value="&lt;div&gt;&lt;font face=&quot;Garamond&quot;&gt;$$\cdots$$&lt;/font&gt;&lt;/div&gt;" style="text;html=1;align=center;verticalAlign=middle;whiteSpace=wrap;rounded=0;" vertex="1" parent="1">
          <mxGeometry x="248.51" y="400" width="60" height="30" as="geometry" />
        </mxCell>
        <mxCell id="vqOgAc8kH5C6fIGknMar-37" style="edgeStyle=orthogonalEdgeStyle;rounded=0;orthogonalLoop=1;jettySize=auto;html=1;exitX=0.5;exitY=1;exitDx=0;exitDy=0;entryX=-0.007;entryY=0.468;entryDx=0;entryDy=0;entryPerimeter=0;" edge="1" parent="1" source="vqOgAc8kH5C6fIGknMar-34" target="vqOgAc8kH5C6fIGknMar-2">
          <mxGeometry relative="1" as="geometry" />
        </mxCell>
        <mxCell id="vqOgAc8kH5C6fIGknMar-38" value="&lt;div align=&quot;left&quot;&gt;&lt;font face=&quot;Garamond&quot;&gt;Num. of&amp;nbsp;&lt;/font&gt;&lt;/div&gt;&lt;div align=&quot;left&quot;&gt;&lt;font face=&quot;Garamond&quot;&gt;Layers&lt;/font&gt;&lt;/div&gt;" style="text;whiteSpace=wrap;html=1;" vertex="1" parent="1">
          <mxGeometry x="370" y="464.5" width="90" height="60" as="geometry" />
        </mxCell>
      </root>
    </mxGraphModel>
  </diagram>
</mxfile>
